<svg xmlns="http://www.w3.org/2000/svg" width="27.592" height="24.833" viewBox="1297 108 27.592 24.833"><g data-name="Iconly/Bulk/Camera"><g data-name="Camera"><path d="M1306.961 126.08a5.424 5.424 0 0 1-1.587-3.83c-.014-1.421.545-2.777 1.573-3.819a5.414 5.414 0 0 1 3.85-1.598c1.45 0 2.812.564 3.835 1.584a5.433 5.433 0 0 1 1.587 3.832 5.453 5.453 0 0 1-1.6 3.83 5.374 5.374 0 0 1-3.823 1.586 5.434 5.434 0 0 1-3.835-1.585Zm1.449-6.187a3.22 3.22 0 0 0-.966 2.343v.013c0 .898.348 1.74.98 2.37a3.331 3.331 0 0 0 2.372.979c1.836 0 3.34-1.501 3.353-3.349 0-.897-.348-1.74-.98-2.37a3.332 3.332 0 0 0-2.373-.979c-.898 0-1.747.353-2.386.993Zm8.884-2.136c0-.69.553-1.254 1.242-1.254.69 0 1.255.565 1.255 1.254 0 .689-.565 1.24-1.255 1.24s-1.242-.551-1.242-1.24Z" fill="#1877f2" fill-rule="evenodd" data-name="Combined Shape"/><path d="m1318.301 112.465-.137-.303c-.373-.786-.8-1.695-1.063-2.219-.634-1.24-1.724-1.93-3.063-1.943h-6.498c-1.338.014-2.414.703-3.049 1.943-.276.551-.745 1.544-1.13 2.357l-.084.165c-.041.11-.151.165-.262.165a6.017 6.017 0 0 0-6.015 6.009v8.186a6.017 6.017 0 0 0 6.015 6.008h15.562c3.312 0 6.016-2.7 6.016-6.008v-8.186c0-3.308-2.704-6.009-6.016-6.009a.314.314 0 0 1-.276-.165Z" fill="#1877f2" opacity="0.4" fill-rule="evenodd" data-name="Path"/></g></g></svg>