<svg xmlns="http://www.w3.org/2000/svg" width="23.414" height="22.243" viewBox="2.759 4.139 23.414 22.243"><g data-name="Heart"><path d="M14.204 26.192a42.447 42.447 0 0 1-7.408-5.804 14.83 14.83 0 0 1-3.548-5.625c-1.332-4.144.218-8.88 4.547-10.286a7.355 7.355 0 0 1 6.68 1.184 7.365 7.365 0 0 1 6.68-1.184c4.328 1.406 5.889 6.142 4.557 10.286a14.832 14.832 0 0 1-3.527 5.625 42.833 42.833 0 0 1-7.409 5.804l-.29.19-.282-.19Z" fill="#ff4557" opacity="0.4" fill-rule="evenodd" data-name="Path_34179"/><path d="m14.48 26.382-.276-.19a42.519 42.519 0 0 1-7.419-5.804 14.83 14.83 0 0 1-3.568-5.625c-1.322-4.144.228-8.88 4.557-10.286a7.37 7.37 0 0 1 6.705 1.196v20.71Z" fill="#ff4557" fill-rule="evenodd" data-name="Path_34178"/><path d="M21.76 12.333a.841.841 0 0 1-.605-.325.958.958 0 0 1-.196-.693c.025-.822-.442-1.57-1.164-1.861-.457-.125-.734-.62-.62-1.11.109-.48.559-.78 1.011-.67.057.009.112.03.162.06 1.447.557 2.384 2.055 2.31 3.693a.945.945 0 0 1-.27.656.829.829 0 0 1-.628.25Z" fill="#ff4557" fill-rule="evenodd" data-name="Path_34180"/></g></svg>