<svg xmlns="http://www.w3.org/2000/svg" width="30.69" height="29.155"><path d="M14.38 28.962a52.65 52.65 0 0 1-9.194-7.185 18.99 18.99 0 0 1-4.563-7.311 12.19 12.19 0 0 1 .569-9.104 9.525 9.525 0 0 1 5.7-4.897 10.074 10.074 0 0 1 8.462 1.13 10.071 10.071 0 0 1 8.462-1.13 9.528 9.528 0 0 1 5.7 4.897 12.121 12.121 0 0 1 .514 9.145 19.217 19.217 0 0 1-4.549 7.311 36.667 36.667 0 0 1-4.318 3.792l-.082.07a1.11 1.11 0 0 1-1.544-.304 1.146 1.146 0 0 1 .271-1.6 35.87 35.87 0 0 0 4.062-3.572 16.802 16.802 0 0 0 4.063-6.414 9.736 9.736 0 0 0-.462-7.366A7.337 7.337 0 0 0 23.1 2.67a7.739 7.739 0 0 0-7.082 1.256 1.119 1.119 0 0 1-1.353 0A7.726 7.726 0 0 0 7.582 2.67 7.338 7.338 0 0 0 3.168 6.41a9.826 9.826 0 0 0-.434 7.339 16.865 16.865 0 0 0 4.063 6.4 50.662 50.662 0 0 0 8.828 6.896c.405.286.583.805.44 1.286-.142.48-.571.813-1.063.825h-.007c-.22 0-.434-.068-.616-.194Zm8.325-17.931a3.027 3.027 0 0 0-2.085-2.76 1.17 1.17 0 0 1-.478-1.343 1.137 1.137 0 0 1 1.169-.794c2.019.649 3.456 2.473 3.643 4.62.037.302-.044.606-.227.843a1.106 1.106 0 0 1-.895.436c-.56 0-1.049-.421-1.127-1.002Z" fill="#ff4557" fill-rule="evenodd" data-name="Heart"/></svg>