<svg xmlns="http://www.w3.org/2000/svg" width="26.125" height="21.375" viewBox="1357.438 109.673 26.125 21.375"><g data-name="Iconly/Bulk/Scan"><g data-name="Scan"><path d="M1364.847 118.607a.332.332 0 0 1-.321-.32v-1.479c-.013-1.472 1.194-2.675 2.695-2.69h6.56c.718 0 1.408.283 1.91.787.506.509.787 1.193.786 1.903v1.48a.333.333 0 0 1-.325.32h-11.305Zm14.743-2.09v-2.205c0-1.58-1.311-2.865-2.922-2.865h-1.892a.895.895 0 0 1-.904-.885c0-.49.405-.888.904-.888h1.892c2.609 0 4.73 2.08 4.73 4.638v2.205a.896.896 0 0 1-.904.887.897.897 0 0 1-.904-.887Zm-19.987-.001v-2.208c0-2.553 2.117-4.631 4.72-4.633l1.934-.001h.001c.498 0 .903.397.903.887s-.404.886-.903.886h-1.934c-1.606.004-2.912 1.285-2.912 2.86v2.209c0 .49-.407.887-.905.887a.896.896 0 0 1-.904-.887Z" fill-rule="evenodd" data-name="Combined Shape"/><path d="M1382.659 120.41h-24.317a.897.897 0 0 0-.904.887c0 .49.406.885.904.885h1.26v4.232c0 2.552 2.119 4.631 4.72 4.633l1.935.002c.5 0 .904-.398.905-.888a.895.895 0 0 0-.904-.886l-1.933-.001c-1.607-.002-2.914-1.285-2.914-2.86v-4.232h3.115v1.178c-.012 1.473 1.193 2.677 2.694 2.69h6.56c1.502-.013 2.707-1.217 2.696-2.69v-1.178h3.114v4.227c0 1.582-1.31 2.866-2.922 2.866h-1.892c-.5 0-.905.397-.905.886 0 .49.405.888.905.888h1.892c2.608 0 4.73-2.08 4.73-4.64v-4.227h1.26a.895.895 0 0 0 .905-.885.896.896 0 0 0-.904-.887" fill-rule="evenodd" data-name="Fill 7"/></g></g></svg>