<svg xmlns="http://www.w3.org/2000/svg" width="19.259" height="19.259" viewBox="2 2 19.259 19.259"><path d="m21.024 19.917-3.31-3.236-.078-.118a.776.776 0 0 0-1.095 0c-2.813 2.58-7.147 2.721-10.129.328-2.981-2.393-3.684-6.577-1.643-9.778 2.042-3.2 6.194-4.423 9.704-2.858 3.51 1.565 5.287 5.433 4.154 9.038a.75.75 0 0 0 .175.743c.19.2.474.285.746.223a.773.773 0 0 0 .57-.52c1.355-4.277-.69-8.881-4.814-10.833C11.181.955 6.22 2.242 3.626 5.934c-2.592 3.693-2.035 8.683 1.31 11.742 3.345 3.06 8.475 3.27 12.07.497l2.932 2.865a.788.788 0 0 0 1.094 0 .755.755 0 0 0 0-1.079l-.008-.042Z" fill-rule="evenodd" data-name="Search"/></svg>