<svg xmlns="http://www.w3.org/2000/svg" width="30.678" height="30.689"><path d="M23.778 30.562a1.028 1.028 0 0 1-.54-.138l-7.883-4.152-6.941 3.737a2.334 2.334 0 0 1-3.164-.94l-.023-.043a2.516 2.516 0 0 1-.243-1.534l1.35-7.97L.693 13.81a2.456 2.456 0 0 1 0-3.417 2.292 2.292 0 0 1 1.35-.692l7.737-1.175 3.441-7.17a2.325 2.325 0 0 1 4.226 0l3.457 7.195 7.763 1.189a2.34 2.34 0 0 1 1.559.957 2.53 2.53 0 0 1-.249 3.193l-5.617 5.646.783 4.294a1.2 1.2 0 0 1-.96 1.381 1.163 1.163 0 0 1-1.35-.94l-.796-4.295a2.49 2.49 0 0 1 .675-2.16l5.631-5.686-7.763-1.204a2.332 2.332 0 0 1-1.77-1.381L15.356 2.38l-3.499 7.277a2.328 2.328 0 0 1-1.769 1.381L2.35 12.213l5.59 5.677c.556.56.806 1.353.675 2.131l-1.35 7.97 6.939-3.723a2.258 2.258 0 0 1 2.214 0l7.872 4.152c.48.262.724.816.594 1.348-.12.533-.59.912-1.134.921l.028-.127Z" fill="#f6cf58" fill-rule="evenodd" data-name="Star"/></svg>