<svg xmlns="http://www.w3.org/2000/svg" width="30.848" height="30.849" viewBox="3971.152 3543.076 30.848 30.849"><path d="m4001.719 3567.859-9.359-9.359 9.358-9.358a.964.964 0 0 0 0-1.363l-4.42-4.422a.964.964 0 0 0-1.363 0l-9.36 9.359-9.358-9.359a.963.963 0 0 0-1.363 0l-4.42 4.421a.963.963 0 0 0-.001 1.363l9.359 9.359-9.359 9.359a.963.963 0 0 0 0 1.363l4.421 4.42a.964.964 0 0 0 1.363.001l9.359-9.359 9.358 9.359a.963.963 0 0 0 1.363 0l4.421-4.421a.964.964 0 0 0 0-1.363Z" fill="#ff4557" fill-rule="evenodd" data-name="Icon metro-cross"/></svg>